UNKNOWN
version=1
nRows=106
nColumns=6
inDegrees=no
endheader
time	time	pelvis_tilt	hip_flexion_r	knee_angle_r	ankle_angle_r
    117.00000000	      5.54000000	     -0.71442698	      8.49363501	    -48.29241170	     -1.68206686
    118.00000000	      5.55000000	     -0.61279726	      9.04773436	    -45.40263551	     -1.41504247
    119.00000000	      5.56000000	     -0.45052108	      9.48277263	    -42.28431336	     -1.22922492
    120.00000000	      5.57000000	     -0.25615979	      9.78733548	    -38.93079301	     -1.01080623
    121.00000000	      5.58000000	      0.01025694	     10.01773197	    -35.36925558	     -0.71664842
    122.00000000	      5.59000000	      0.28637279	     10.12817742	    -31.56232585	     -0.37601040
    123.00000000	      5.60000000	      0.56097775	     10.12998571	    -27.53706353	     -0.02597553
    124.00000000	      5.61000000	      0.85154913	     10.06556014	    -23.34089780	      0.29040690
    125.00000000	      5.62000000	      1.12314149	      9.91979117	    -19.03790379	      0.52147181
    126.00000000	      5.63000000	      1.38114678	      9.73739327	    -14.74043062	      0.65024513
    127.00000000	      5.64000000	      1.62522916	      9.54960935	    -10.57851115	      0.67745661
    128.00000000	      5.65000000	      1.84373349	      9.35659613	     -6.67646230	      0.60951305
    129.00000000	      5.66000000	      2.03904778	      9.18046941	     -3.18361109	      0.49013714
    130.00000000	      5.67000000	      2.20530659	      9.07073982	     -0.26301093	      0.39972613
    131.00000000	      5.68000000	      2.38497233	      8.95773279	      1.92492499	      0.51443981
    132.00000000	      5.69000000	      2.56385766	      8.99466806	      3.22494045	      0.94884174
    133.00000000	      5.70000000	      2.69957768	      9.15269713	      3.63556071	      1.62470084
    134.00000000	      5.71000000	      2.73578348	      9.39960841	      3.17010418	      2.43130740
    135.00000000	      5.72000000	      2.70523715	      9.70218676	      1.96824600	      3.12826450
    136.00000000	      5.73000000	      2.56501222	     10.01625268	      0.22321486	      3.42038022
    137.00000000	      5.74000000	      2.33888599	     10.31322193	     -1.82830633	      3.13002276
    138.00000000	      5.75000000	      2.03326362	     10.52915625	     -3.90439948	      2.20150685
    139.00000000	      5.76000000	      1.65437567	     10.59851467	     -5.77740313	      0.70924725
    140.00000000	      5.77000000	      1.21822732	     10.48370563	     -7.37083329	     -1.11187424
    141.00000000	      5.78000000	      0.70513065	     10.18055127	     -8.70889729	     -2.90119272
    142.00000000	      5.79000000	      0.11391078	      9.73747617	     -9.92760453	     -4.27671672
    143.00000000	      5.80000000	     -0.56820112	      9.21760445	    -11.11128789	     -5.03709729
    144.00000000	      5.81000000	     -1.32340397	      8.70882063	    -12.37628981	     -5.16978292
    145.00000000	      5.82000000	     -2.06803387	      8.20338170	    -13.67258168	     -4.76756788
    146.00000000	      5.83000000	     -2.76351673	      7.70038076	    -14.89130841	     -4.07631967
    147.00000000	      5.84000000	     -3.30692830	      7.25604440	    -15.95922158	     -3.23283364
    148.00000000	      5.85000000	     -3.75076076	      6.53699317	    -16.65346417	     -2.40857543
    149.00000000	      5.86000000	     -4.09553749	      5.62425946	    -16.95530712	     -1.63400776
    150.00000000	      5.87000000	     -4.34929245	      4.47007656	    -16.84357089	     -1.01491917
    151.00000000	      5.88000000	     -4.51140756	      3.05764899	    -16.33480666	     -0.60700515
    152.00000000	      5.89000000	     -4.52791947	      1.61382575	    -15.57545353	     -0.30125726
    153.00000000	      5.90000000	     -4.42497116	      0.18290684	    -14.68523575	     -0.12172685
    154.00000000	      5.91000000	     -4.20062525	     -1.24412578	    -13.70267974	     -0.00541845
    155.00000000	      5.92000000	     -3.89879883	     -2.63005839	    -12.71934517	      0.11576046
    156.00000000	      5.93000000	     -3.50563481	     -3.90543207	    -11.80103132	      0.29710156
    157.00000000	      5.94000000	     -3.07896870	     -5.15935920	    -10.90048126	      0.47070767
    158.00000000	      5.95000000	     -2.70657311	     -6.28657785	    -10.07108278	      0.72891435
    159.00000000	      5.96000000	     -2.37833950	     -7.46180623	     -9.20621716	      0.91952423
    160.00000000	      5.97000000	     -2.11099464	     -8.60179686	     -8.36043759	      1.12239858
    161.00000000	      5.98000000	     -1.88762821	     -9.74023061	     -7.52801524	      1.31367392
    162.00000000	      5.99000000	     -1.70842467	    -10.86328244	     -6.74226142	      1.51310491
    163.00000000	      6.00000000	     -1.56102502	    -11.97035143	     -6.01965226	      1.72849461
    164.00000000	      6.01000000	     -1.44462797	    -13.04241859	     -5.37395727	      1.97913597
    165.00000000	      6.02000000	     -1.38607619	    -14.13554821	     -4.80016248	      2.28948445
    166.00000000	      6.03000000	     -1.32579005	    -15.25426378	     -4.25716825	      2.58677497
    167.00000000	      6.04000000	     -1.36073822	    -16.24228364	     -3.82740389	      2.93007507
    168.00000000	      6.05000000	     -1.46284002	    -17.35798252	     -3.37324897	      3.22354563
    169.00000000	      6.06000000	     -1.62224975	    -18.52699949	     -2.91677493	      3.50131670
    170.00000000	      6.07000000	     -1.88042687	    -19.70832950	     -2.45691829	      3.79472669
    171.00000000	      6.08000000	     -2.20975598	    -20.95026081	     -1.95683052	      4.07513741
    172.00000000	      6.09000000	     -2.60558909	    -22.23201979	     -1.40820207	      4.33592167
    173.00000000	      6.10000000	     -2.98251881	    -23.62676410	     -0.79263135	      4.59634894
    174.00000000	      6.11000000	     -3.44902088	    -25.01380861	     -0.18118595	      4.81154721
    175.00000000	      6.12000000	     -3.85609923	    -26.52141459	      0.48883612	      5.00947594
    176.00000000	      6.13000000	     -4.31585446	    -28.03348848	      1.11771815	      5.19977165
    177.00000000	      6.14000000	     -4.73274044	    -29.58473767	      1.67982851	      5.39921167
    178.00000000	      6.15000000	     -5.10753251	    -31.11474144	      2.14213759	      5.62022808
    179.00000000	      6.16000000	     -5.46893320	    -32.53196882	      2.40000741	      5.86399629
    180.00000000	      6.17000000	     -5.89577396	    -33.71777620	      2.24718504	      6.23803447
    181.00000000	      6.18000000	     -6.46456652	    -34.64030812	      1.65668160	      6.64293388
    182.00000000	      6.19000000	     -7.27555232	    -35.21620058	      0.47457073	      7.10727654
    183.00000000	      6.20000000	     -8.29504753	    -35.49209043	     -1.25734986	      7.56584854
    184.00000000	      6.21000000	     -7.56985187	    -36.29602181	     -1.88709185	      7.86180925
    185.00000000	      6.22000000	     -6.53073764	    -36.88018373	     -2.70805165	      8.10469770
    186.00000000	      6.23000000	     -6.76116005	    -36.68412059	     -4.96234800	      8.34799819
    187.00000000	      6.24000000	     -6.63192291	    -36.47679569	     -7.23214563	      8.38666828
    188.00000000	      6.25000000	     -6.34384385	    -36.12586139	     -9.58878463	      8.14949603
    189.00000000	      6.26000000	     -5.87419309	    -35.77220654	    -11.99369800	      7.55713408
    190.00000000	      6.27000000	     -5.33296671	    -35.30558222	    -14.58707063	      6.58371599
    191.00000000	      6.28000000	     -4.71646263	    -34.69542613	    -17.39682601	      5.13290465
    192.00000000	      6.29000000	     -3.99333497	    -33.86028121	    -20.49019154	      3.17883801
    193.00000000	      6.30000000	     -3.14464935	    -32.71244217	    -23.90765783	      0.65132369
    194.00000000	      6.31000000	     -2.16965234	    -31.21745738	    -27.62836409	     -2.47258833
    195.00000000	      6.32000000	     -1.11483346	    -29.41215905	    -31.56494178	     -6.14983896
    196.00000000	      6.33000000	     -0.11533043	    -27.40064545	    -35.51823535	    -10.39356457
    197.00000000	      6.34000000	      0.74597117	    -25.34697523	    -39.32454181	    -14.96379101
    198.00000000	      6.35000000	      1.42939018	    -23.28985214	    -42.87785492	    -19.47509813
    199.00000000	      6.36000000	      1.88598279	    -21.49928055	    -46.05608172	    -23.42028136
    200.00000000	      6.37000000	      2.15938907	    -19.72245775	    -48.95218344	    -26.22704644
    201.00000000	      6.38000000	      2.28228542	    -17.97864161	    -51.57304968	    -27.50691358
    202.00000000	      6.39000000	      2.29292303	    -16.18955958	    -53.90895674	    -27.21486543
    203.00000000	      6.40000000	      2.21714732	    -14.36238657	    -55.92842149	    -25.66494185
    204.00000000	      6.41000000	      2.10731987	    -12.39243324	    -57.64072969	    -23.29049050
    205.00000000	      6.42000000	      1.99278292	    -10.37685682	    -59.01401684	    -20.63785784
    206.00000000	      6.43000000	      1.84862592	     -8.33334981	    -60.06600815	    -18.08229916
    207.00000000	      6.44000000	      1.68943940	     -6.29811341	    -60.78363254	    -15.84828453
    208.00000000	      6.45000000	      1.50068300	     -4.29452134	    -61.17963527	    -14.00474667
    209.00000000	      6.46000000	      1.29450425	     -2.39996412	    -61.23608732	    -12.44573672
    210.00000000	      6.47000000	      1.05913535	     -0.69904251	    -60.94378588	    -11.04064955
    211.00000000	      6.48000000	      0.78636619	      0.86634201	    -60.31164659	     -9.70584297
    212.00000000	      6.49000000	      0.53655877	      2.28587649	    -59.36493399	     -8.29452797
    213.00000000	      6.50000000	      0.26866296	      3.52623401	    -58.09042785	     -6.86218002
    214.00000000	      6.51000000	      0.00717624	      4.59873157	    -56.50085560	     -5.46686673
    215.00000000	      6.52000000	     -0.19078340	      5.59151295	    -54.64119197	     -4.12346643
    216.00000000	      6.53000000	     -0.34862300	      6.42095534	    -52.48229682	     -2.99619721
    217.00000000	      6.54000000	     -0.42228235	      7.15806149	    -50.07503994	     -2.07097371
    218.00000000	      6.55000000	     -0.44357452	      7.74062542	    -47.41015246	     -1.42345197
    219.00000000	      6.56000000	     -0.40352517	      8.20998941	    -44.51904559	     -0.98501570
    220.00000000	      6.57000000	     -0.30362241	      8.60643813	    -41.41776630	     -0.65157739
    221.00000000	      6.58000000	     -0.16738576	      8.87957243	    -38.08673971	     -0.36060294
    222.00000000	      6.59000000	      0.00753288	      9.08232025	    -34.53675488	     -0.03937884
